<svg t="1602121206753" class="icon" viewBox="0 0 1024 1024" version="1.1" xmlns="http://www.w3.org/2000/svg" p-id="960" width="65" height="65" xmlns:xlink="http://www.w3.org/1999/xlink">
    <defs>
        <style type="text/css"></style>
    </defs>
    <path d="M920.588029 397.857992c0.137817 9.627502 0.511892 35.438657-7.73744 76.153736l-1.358482 6.79241c-14.017958 64.045529-45.932437 149.551133-114.880313 252.008229-56.347465 83.75336-137.423237 178.84709-253.662033 282.820172a32.288554 32.288554 0 0 1-21.558517 8.150891c-7.481494 0-14.766107-2.559459-20.475668-7.225548-134.076253-109.426698-223.932937-210.564688-284.099902-297.960355-51.976697-75.563092-81.764857-140.848974-98.795101-192.353156a382.146854 382.146854 0 0 1-15.632386-58.41472c-8.859664-43.943935-6.871162-69.833843-6.615216-72.649247C95.654842 178.473015 280.684009 0 508.101748 0c227.457115 0 412.486282 178.473015 412.486281 397.857992zM700.297399 758.446329a391.400281 391.400281 0 0 1-192.215339 50.1457c-62.942993 0-122.460249-14.805483-175.224472-41.148219 48.117821 57.154679 109.446386 119.113265 187.588625 184.67478 75.700909-69.65665 134.391263-134.607833 179.851186-193.672261zM154.876776 411.738132v3.228856c0 194.951991 158.253293 353.205283 353.205284 353.205283 194.951991 0 353.205283-158.253293 353.205283-353.205283 0-194.932303-158.253293-353.205283-353.205283-353.205284-153.843149 0-284.86774 98.578531-333.261195 235.962393-10.237834 31.658534-15.750514 65.285882-15.750514 100.133895-0.059064 1.181289-2.342889 5.867067-4.193575 13.860452z" fill="#A9A9A9" p-id="961"></path>
    <path d="M700.297399 758.446329a391.400281 391.400281 0 0 1-192.215339 50.1457c-62.942993 0-122.460249-14.805483-175.224472-41.148219 48.117821 57.154679 109.446386 119.113265 187.588625 184.67478 75.700909-69.65665 134.391263-134.607833 179.851186-193.672261z" fill="#FFFFFF" p-id="962"></path>
    <path d="M674.171233 401.283728c-48.747842 29.768472-149.177059-21.814462-165.971045-92.928034-16.793986 71.369518-117.735094 123.090269-166.207302 92.632712a162.801254 162.801254 0 0 1-0.177193-7.579935c0 0.866278-0.078753 1.732557-0.078753 2.598835a166.286055 166.286055 0 0 0 332.434293 5.276422z" fill="#FCE9EA" p-id="963"></path>
    <path d="M584.452366 574.184999l1.870373 0.649709c-1.870374 5.335487-4.292015 10.434716-7.20586 15.277999 11.891638 18.152468 8.918729 97.653189-8.938417 85.092154l-31.107266-21.834151-31.048201-21.814462 2.047567-1.456923-2.047567 0.059065-2.126319-0.059065 2.047567 1.456923-31.048202 21.814462-31.107266 21.853839c-17.817769 12.561035-20.810367-67.136567-8.879352-85.170907a82.828017 82.828017 0 0 1-7.166484-15.15987l1.929438-0.689085c-61.820769 21.322259-107.221626 68.317856-125.157524 130.748957a351.551479 351.551479 0 0 0 201.508142 63.120187c74.972448 0 144.471593-23.389514 201.64596-63.218627-17.955586-62.431101-63.415508-109.387322-125.216589-130.670205z m-106.827863-10.592221l2.953221-0.354386-2.953221 0.354386z m-19.294381 3.248544z m-9.11561 2.106631l0.196882-0.059064-0.196882 0.059064z m105.784392-2.677587z m20.770991 5.118917l3.012286 0.945031-3.012286-0.945031z m-9.154987-2.53977l0.590645 0.157505-0.590645-0.157505z m-129.055776 3.425736l2.835092-0.866278-2.835092 0.866278z m98.086328-9.056545l2.953221 0.393763-2.953221-0.393763z" fill="#F08E83" p-id="964"></path>
    <path d="M436.909423 590.053642c2.362577-3.60293 5.315799-4.764531 8.859664-2.264136l31.126954 21.853839 29.000635 20.475668 2.126319 0.039377c0.689085 0 1.37817-0.039376 2.047567-0.059065l29.000634-20.475668 31.107266-21.834151c3.583242-2.520082 6.556152-1.319106 8.938417 2.323201 2.913845-4.843283 5.335487-9.942512 7.20586-15.277999-0.630021-0.196881-1.240353-0.433139-1.870373-0.649709a195.759205 195.759205 0 0 0-5.670185-1.850685c-1.004095-0.31501-2.008191-0.649709-3.031974-0.945031-2.835093-0.866278-5.689873-1.653804-8.564342-2.382265l-0.590645-0.157505a218.144623 218.144623 0 0 0-11.616004-2.579147c-5.414239-1.082848-10.887543-1.968814-16.400223-2.677588l-2.953222-0.354386c-3.209167-0.393763-6.438023-0.689085-9.666878-0.945031h-18.979369a28.94157 28.94157 0 0 1-3.937629 0h-12.777605c-3.228855 0.255946-6.457711 0.551268-9.686566 0.945031l-2.953221 0.354386a218.873085 218.873085 0 0 0-19.314069 3.228856c-2.97291 0.649709-5.945819 1.319106-8.918728 2.067255l-0.157506 0.059064c-2.953221 0.767838-5.906443 1.575051-8.859664 2.461018l-2.795716 0.866278-5.906443 1.949127-1.929438 0.669396c1.870374 5.276422 4.272327 10.355963 7.166484 15.15987z" fill="#FEFEFE" p-id="965"></path>
    <path d="M570.178462 587.789506l-31.107266 21.853839-29.000634 20.475668-2.047567 1.437235 31.048201 21.814462 31.107266 21.853839c17.857146 12.541347 20.830055-66.959374 8.938417-85.111842-2.382265-3.642306-5.355175-4.843283-8.938417-2.323201z m-124.389687 0c-3.543866-2.500394-6.497087-1.338794-8.879352 2.264136-11.931015 18.034339-8.918729 97.731941 8.859664 85.151219l31.126954-21.834151 31.048202-21.814462-2.027879-1.456923-29.020323-20.475668-31.107266-21.834151z" fill="#CFE07D" p-id="966"></path>
    <path d="M508.200188 308.355694v-78.693507c-68.770683-4.705466-167.29015 58.63129-166.364807 163.746284 0 2.520082 0.019688 5.020476 0.157505 7.579935 48.472208 30.457557 149.413316-21.263194 166.207302-92.632712z" fill="#ADBE20" p-id="967"></path>
    <path d="M508.200188 308.355694c16.793986 71.113572 117.223203 122.696507 165.971045 92.928034l0.551268-0.295322c5.945819-109.662956-95.979697-176.130126-166.522313-171.326219v78.693507z" fill="#7EA701" p-id="968"></path>
    <path d="M508.022995 61.742016c-195.030743 0-353.146219 158.135164-353.146219 353.165907 0 120.137048 59.989771 226.256138 151.638077 290.045721 17.935898-62.450789 63.376132-109.426698 125.157524-130.729268l5.906443-1.949127 2.815404-0.866278a206.7255 206.7255 0 0 1 8.820288-2.461018l0.196882-0.059064a230.193767 230.193767 0 0 1 28.213109-5.296111l2.953221-0.354386c3.228855-0.393763 6.457711-0.689085 9.686566-0.945031h12.797293c1.299417 0.078753 2.598835 0.078753 3.917941 0h1.043471a166.286055 166.286055 0 0 1-166.286055-166.286055c0-0.866278 0.059064-1.732557 0.078753-2.598835-0.905655-105.114995 97.613812-168.451751 166.364807-163.746284 70.562304-4.803907 172.468132 61.663264 166.542001 171.326219l-0.551268 0.295322a166.246679 166.246679 0 0 1-166.167926 161.009633h17.935898c3.268232 0.255946 6.497087 0.570956 9.686566 0.945031l2.953222 0.354386a248.424987 248.424987 0 0 1 16.419911 2.677588l2.933533 0.590644a199.972467 199.972467 0 0 1 17.81777 4.528273c1.023783 0.295322 2.008191 0.630021 3.031974 0.945031a181.130915 181.130915 0 0 1 5.650497 1.850685c61.820769 21.263194 107.261002 68.239103 125.236277 130.670205 91.569553-63.789583 151.519948-169.869297 151.519947-289.947281 0-195.030743-158.135164-353.165907-353.165907-353.165907z" fill="#A6D4AE" p-id="969"></path>
</svg>